<?xml version="1.0" encoding="UTF-8"?>
<svg version="1.1" xmlns="http://www.w3.org/2000/svg" width="1408" height="768">
<path d="M0 0 C464.64 0 929.28 0 1408 0 C1408 253.44 1408 506.88 1408 768 C943.36 768 478.72 768 0 768 C0 514.56 0 261.12 0 0 Z " fill="#FEFEFE" transform="translate(0,0)"/>
<path d="M0 0 C2.22889087 0.01613544 4.45597647 0.00000902 6.68481445 -0.01904297 C41.5436827 -0.07083956 73.53688748 15.53248868 98.52661133 39.09033203 C100.66333008 41.39111328 100.66333008 41.39111328 100.66333008 43.39111328 C86.98100639 45.56398851 86.98100639 45.56398851 81.76098633 42.92236328 C79.28994342 40.83979876 76.99022607 38.63254731 74.66333008 36.39111328 C59.33753553 25.32378378 40.5009091 16.99056415 21.66333008 14.39111328 C20.9646582 14.28154297 20.26598633 14.17197266 19.54614258 14.05908203 C-12.41924009 9.91132476 -44.09598979 18.20780029 -70.21166992 36.94580078 C-79.39979058 43.68902108 -79.39979058 43.68902108 -86.33666992 52.39111328 C-85.38791992 52.37048828 -84.43916992 52.34986328 -83.46166992 52.32861328 C-81.17968245 52.28728956 -79.23587505 52.41282036 -76.99682617 52.89501953 C-73.06573788 53.68372129 -70.48958978 54.08818344 -66.96557617 51.95751953 C-65.31733102 50.56909627 -63.69227581 49.15285106 -62.08666992 47.71533203 C-42.12684844 30.84588064 -13.83798639 24.38847034 11.66333008 26.39111328 C30.64034607 28.26097472 51.07397317 35.18594902 65.77026367 47.57080078 C71.73082379 52.67794126 71.73082379 52.67794126 79.35083008 53.64111328 C81.13469521 53.28434025 82.90799542 52.86888106 84.66333008 52.39111328 C86.24397855 52.02515033 87.82738292 51.67088524 89.41333008 51.32861328 C90.2099707 51.15458984 91.00661133 50.98056641 91.82739258 50.80126953 C97.7178142 49.94934905 103.72726733 50.24864778 109.66333008 50.39111328 C114.45276719 96.25701692 114.45276719 96.25701692 115.31762695 116.89404297 C115.52838647 121.63613217 115.93971058 126.32882545 116.44384766 131.04858398 C120.48791822 169.12587172 120.48791822 169.12587172 110.41333008 181.82861328 C102.16811644 190.35156043 89.94318992 192.18829776 78.78515625 194.73803711 C60.14994765 199.08298671 45.1817173 208.00695706 30.66333008 220.39111328 C33.66498935 219.44235363 33.66498935 219.44235363 36.46411133 218.15673828 C51.14021038 211.82267106 66.51129363 208.5842306 82.38598633 207.05151367 C95.82472226 205.74008468 113.52330113 203.42631883 122.66333008 192.39111328 C132.28464918 178.58760559 134.08327849 165.35756678 134.03833008 149.01611328 C134.03651733 147.80675613 134.03651733 147.80675613 134.03466797 146.57296753 C133.95272995 126.47242142 131.12293278 104.58051734 119.66333008 87.39111328 C119.25268555 84.57202148 119.25268555 84.57202148 119.03051758 81.19189453 C118.90483398 79.37915039 118.90483398 79.37915039 118.77661133 77.52978516 C118.69797852 76.26714844 118.6193457 75.00451172 118.53833008 73.70361328 C118.4087793 71.79225586 118.4087793 71.79225586 118.27661133 69.84228516 C118.06425509 66.69233425 117.86016573 63.54206593 117.66333008 60.39111328 C133.43194662 75.31546883 141.45622914 99.70234766 145.66333008 120.39111328 C145.91928955 121.52178223 145.91928955 121.52178223 146.18041992 122.67529297 C147.9043024 130.92585316 148.05966641 139.1227563 148.03833008 147.51611328 C148.03845093 148.24589386 148.03857178 148.97567444 148.03869629 149.72756958 C148.01266627 160.75809378 147.30364376 170.88729151 143.66333008 181.39111328 C143.37458008 182.32826172 143.08583008 183.26541016 142.78833008 184.23095703 C138.62115328 196.30460768 129.89216869 205.86343089 118.79516602 211.96923828 C110.81086356 215.81100458 103.33964169 217.78798701 94.60083008 219.07861328 C93.33803223 219.28228516 92.07523438 219.48595703 90.77416992 219.69580078 C85.14585105 220.59438582 79.50989006 221.42248296 73.86254883 222.19189453 C52.73666683 225.0790918 29.69283541 231.99420079 15.41333008 248.95361328 C14.83583008 249.75798828 14.25833008 250.56236328 13.66333008 251.39111328 C14.36458008 251.66826172 15.06583008 251.94541016 15.78833008 252.23095703 C19.79437418 253.84752646 23.75712214 255.56408257 27.72583008 257.27001953 C34.17433342 259.73108397 40.47009573 259.60773147 47.28833008 259.64111328 C48.83327148 259.67205078 48.83327148 259.67205078 50.40942383 259.70361328 C68.01156535 259.79217752 86.94491043 251.94911885 99.50317383 239.59814453 C103.69677493 235.22325169 107.50226638 230.89829146 110.47583008 225.57861328 C113.71421472 220.33641879 118.798532 218.40673085 124.22583008 215.99658203 C127.68490843 214.38103521 130.55063789 212.57853874 133.66333008 210.39111328 C130.09423836 222.16190565 123.21870932 232.79993925 115.66333008 242.39111328 C114.59791992 243.76203125 114.59791992 243.76203125 113.51098633 245.16064453 C90.79120173 273.71011024 58.06814119 293.32976741 21.85083008 298.76611328 C-14.9579219 302.44698848 -52.3251393 294.6419719 -81.42260742 270.85205078 C-85.83056287 267.12951468 -90.1479327 263.35973139 -94.33666992 259.39111328 C-95.04605713 258.73054932 -95.04605713 258.73054932 -95.76977539 258.05664062 C-107.45605461 247.12333351 -115.80621337 234.90556635 -123.42651367 220.88720703 C-124.5962799 218.74622385 -125.80858919 216.62700347 -127.09057617 214.55126953 C-128.33666992 212.39111328 -128.33666992 212.39111328 -128.33666992 210.39111328 C-127.67666992 210.39111328 -127.01666992 210.39111328 -126.33666992 210.39111328 C-126.33666992 211.05111328 -126.33666992 211.71111328 -126.33666992 212.39111328 C-123.94977462 213.62036436 -121.55981845 214.72164864 -119.08666992 215.77392578 C-108.48431366 220.55526932 -103.28560913 226.95632538 -96.78833008 236.37792969 C-79.28066209 260.6578204 -49.69674229 278.86486413 -20.33666992 284.39111328 C6.30392422 288.31833909 33.4403679 285.50259437 57.66333008 273.39111328 C57.09525635 273.40682373 56.52718262 273.42253418 55.94189453 273.4387207 C32.1475894 274.00874499 13.97549715 269.00613947 -4.33666992 253.39111328 C-5.4807875 252.26436842 -6.60813274 251.12013149 -7.71166992 249.95361328 C-25.74443142 231.22728403 -51.04217567 224.40796547 -75.94604492 221.12939453 C-109.47297327 216.66036014 -109.47297327 216.66036014 -122.33666992 205.39111328 C-123.31893555 204.60027344 -123.31893555 204.60027344 -124.32104492 203.79345703 C-136.70662474 192.87206397 -141.48962513 175.24578337 -142.53930664 159.31591797 C-143.14120367 145.08030346 -142.26893012 131.32418262 -139.33666992 117.39111328 C-139.20808594 116.7253125 -139.07950195 116.05951172 -138.94702148 115.37353516 C-135.21310208 96.23838585 -126.53273161 74.16202036 -112.33666992 60.39111328 C-112.74552927 75.32857809 -114.16683437 87.96046532 -120.29760742 101.62939453 C-122.45947507 106.47506358 -123.94437506 111.38617971 -125.27416992 116.51611328 C-125.47308838 117.26175537 -125.67200684 118.00739746 -125.87695312 118.77563477 C-128.44550593 128.99165131 -128.54324684 139.27943983 -128.58666992 149.76611328 C-128.60729492 151.00361328 -128.62791992 152.24111328 -128.64916992 153.51611328 C-128.68314834 161.58598801 -127.71640487 168.68255936 -125.33666992 176.39111328 C-125.05678223 177.29829102 -124.77689453 178.20546875 -124.48852539 179.14013672 C-121.58715406 188.01384691 -114.66544447 196.14507135 -106.33666992 200.39111328 C-97.85973413 203.77489991 -89.34278955 205.38954737 -80.35565186 206.60031128 C-76.69922236 207.09625623 -73.04941891 207.636987 -69.39916992 208.17626953 C-68.33495316 208.33283775 -68.33495316 208.33283775 -67.24923706 208.49256897 C-54.60025762 210.37233626 -42.94170608 213.14278571 -31.18041992 218.21923828 C-28.54110308 219.51811505 -28.54110308 219.51811505 -26.33666992 219.39111328 C-44.1131598 203.46006409 -65.2906818 195.5045219 -88.55932617 191.02001953 C-95.4603602 189.45733813 -101.68404171 185.74559782 -106.33666992 180.39111328 C-116.61541288 163.36611525 -111.92229708 141.93154425 -110.52416992 122.95361328 C-110.33927051 120.40795924 -110.15437471 117.86230495 -109.96948242 115.31665039 C-109.51673764 109.12144162 -109.05341077 102.92707362 -108.58660889 96.73291016 C-108.35870306 93.68570629 -108.13645308 90.63817137 -107.91723633 87.59033203 C-107.62792722 83.57759917 -107.32339628 79.56641991 -107.00210571 75.55612183 C-106.84241936 73.52668232 -106.69706374 71.49613085 -106.55224609 69.46557617 C-105.11144096 52.39766433 -97.08711392 42.00745056 -84.40698242 30.86376953 C-71.47042738 20.44539886 -57.0187977 12.19592255 -41.39916992 6.57861328 C-40.63773682 6.30057861 -39.87630371 6.02254395 -39.09179688 5.73608398 C-26.27963288 1.35420385 -13.46274897 -0.11540767 0 0 Z " fill="#343E44" transform="translate(701.336669921875,124.60888671875)"/>
<path d="M0 0 C0.91836207 11.26607104 1.83148094 22.53255392 2.73806 33.79957962 C3.15926196 39.03228619 3.58221289 44.26483868 4.00927734 49.49707031 C4.42198278 54.55419796 4.82994178 59.61168886 5.23472595 64.66945648 C5.38933705 66.59110706 5.54560705 68.51262497 5.70362854 70.43399811 C8.20968532 100.94555231 8.20968532 100.94555231 3 109 C-2.46738588 114.93601895 -11.48327929 116.17627294 -19.0546875 117.98925781 C-41.45407207 123.41458301 -60.41273545 132.82229754 -77 149 C-78.11181641 150.05380859 -78.11181641 150.05380859 -79.24609375 151.12890625 C-83.08821285 154.84412967 -86.17123197 158.47397116 -89 163 C-89.33 163 -89.66 163 -90 163 C-90.09376255 148.86509606 -90.16386802 134.73024089 -90.20724869 120.59508896 C-90.22807494 114.03073042 -90.25630222 107.46658161 -90.30175781 100.90234375 C-90.34539201 94.56105757 -90.36917439 88.21997246 -90.37950897 81.87854767 C-90.3868688 79.46577034 -90.40124047 77.05300334 -90.42292023 74.64031219 C-90.57420812 57.09751436 -90.2256535 43.70626898 -78 30 C-59.49181312 12.30193578 -25.77595851 -0.25600795 0 0 Z " fill="#FBFCFC" transform="translate(800,188)"/>
<path d="M0 0 C27.57882028 2.78243291 59.72691712 11.44907179 79.375 32.3125 C85.18946151 39.67978506 89.13102348 48.3544519 89.12025452 57.77729797 C89.12231651 59.17594337 89.12231651 59.17594337 89.12442017 60.60284424 C89.11902725 62.11875153 89.11902725 62.11875153 89.11352539 63.6652832 C89.11367142 64.7389061 89.11381744 65.81252899 89.1139679 66.91868591 C89.11327196 70.46273834 89.10549444 74.00673802 89.09765625 77.55078125 C89.09579094 80.00986197 89.09436757 82.46894307 89.09336853 84.92802429 C89.08955227 91.39707466 89.07972956 97.86610255 89.06866455 104.33514404 C89.0584313 110.93761898 89.0538668 117.54009755 89.04882812 124.14257812 C89.03810652 137.09506167 89.02123326 150.04752964 89 163 C86.23523361 160.28154461 83.86805646 157.55436586 81.5625 154.4375 C64.9891145 133.64432262 40.13218477 123.13139163 14.84692383 117.57177734 C-0.04927986 114.17707485 -0.04927986 114.17707485 -4.19239807 108.31202698 C-7.0237828 102.91981408 -7.58781325 98.52655166 -7.43359375 92.48828125 C-7.42089951 91.51973709 -7.40820526 90.55119293 -7.39512634 89.55329895 C-7.04136763 73.6237232 -5.56999254 57.71750322 -4.2769165 41.84301758 C-3.9875787 38.25961052 -3.70825134 34.67545093 -3.42903996 31.09124279 C-3.15880153 27.63127882 -2.88415926 24.17167655 -2.60796928 20.712183 C-2.47662601 19.06438223 -2.34626336 17.41650298 -2.21690559 15.76854515 C-2.03695513 13.48880243 -1.85148142 11.20957935 -1.66430664 8.93041992 C-1.5599379 7.63633713 -1.45556915 6.34225433 -1.34803772 5.00895691 C-1 2 -1 2 0 0 Z " fill="#FCFCFC" transform="translate(609,188)"/>
<path d="M0 0 C6.46594113 4.97964258 10.99643957 11.70940459 12.328125 19.79296875 C13.56116022 31.72069723 12.09203085 40.44610343 4.46484375 50.16796875 C-1.1546599 56.29424127 -8.44498353 60.27966616 -16.8190918 60.9699707 C-19.33262858 61.03688106 -21.84509483 61.0778393 -24.359375 61.10546875 C-25.21982422 61.13447266 -26.08027344 61.16347656 -26.96679688 61.19335938 C-36.61510444 61.28787934 -44.69558146 57.40131432 -51.671875 50.79296875 C-58.63768489 42.58213854 -61.36328841 33.42990293 -61.0078125 22.73828125 C-59.91424598 13.15050038 -54.90283255 6.00774144 -47.671875 -0.20703125 C-32.30632898 -9.82024722 -15.31279816 -9.7510743 0 0 Z " fill="#343E44" transform="translate(680.671875,467.20703125)"/>
<path d="M0 0 C8.92658296 5.24115785 14.74920286 12.4291369 17.6875 22.3125 C19.0742677 34.23870224 17.09806997 43.22372307 10 53 C7.88327503 55.42894191 5.68622208 57.22846019 3 59 C1.93458984 59.72896484 1.93458984 59.72896484 0.84765625 60.47265625 C-5.47408942 64.05797488 -11.51150586 64.48919063 -18.625 64.5625 C-19.50752441 64.57716309 -20.39004883 64.59182617 -21.29931641 64.60693359 C-31.00965641 64.45642786 -38.87997791 60.48913406 -46 54 C-52.56786779 47.10522477 -55.05945847 39.48914847 -55.4375 30.0625 C-55.10086148 19.95039673 -51.62887638 12.51629463 -44.6484375 5.234375 C-31.83430822 -5.57636534 -14.94194273 -7.10787555 0 0 Z " fill="#353F45" transform="translate(765,464)"/>
<path d="M0 0 C10.085625 -0.12375 10.085625 -0.12375 20.375 -0.25 C22.47665527 -0.28641602 24.57831055 -0.32283203 26.74365234 -0.36035156 C28.4410704 -0.37205244 30.13849982 -0.38224094 31.8359375 -0.390625 C32.6916333 -0.41108887 33.5473291 -0.43155273 34.42895508 -0.45263672 C41.49578001 -0.45664854 48.64620813 0.88899252 53.98178101 5.83831787 C57.72027977 10.06393226 59.35261525 12.95445477 59.2890625 18.76953125 C58.60308222 24.0627034 55.85082493 28.41398824 52 32 C53.6396875 33.051875 53.6396875 33.051875 55.3125 34.125 C58.84407385 36.6843187 60.61362864 38.75933465 62 43 C62.77563293 48.97565089 62.01967408 53.68953868 59 59 C54.06898823 64.07189782 47.79986979 66.13259984 40.86914062 66.34057617 C38.96477777 66.33983613 37.06036571 66.32365691 35.15625 66.29296875 C34.2600293 66.28994751 33.36380859 66.28692627 32.44042969 66.28381348 C29.12683417 66.26824418 25.81340421 66.2263612 22.5 66.1875 C11.3625 66.0946875 11.3625 66.0946875 0 66 C0 44.22 0 22.44 0 0 Z " fill="#364046" transform="translate(542,461)"/>
<path d="M0 0 C0.9075 0.70125 1.815 1.4025 2.75 2.125 C0.24945598 3.79202935 -1.62581456 4.73656635 -4.390625 5.75390625 C-22.7123491 12.66841279 -44.41454979 22.26785858 -53.25 41.125 C-53.91 41.125 -54.57 41.125 -55.25 41.125 C-55.765625 40.135 -56.28125 39.145 -56.8125 38.125 C-68.0347737 18.85364723 -91.19369255 10.16604411 -111.25 3.125 C-111.25 2.465 -111.25 1.805 -111.25 1.125 C-78.72815435 -22.86121174 -33.07681286 -23.51243324 0 0 Z " fill="#FBFCFC" transform="translate(758.25,180.875)"/>
<path d="M0 0 C5.28 0 10.56 0 16 0 C16.33 9.24 16.66 18.48 17 28 C19.88328455 25.1398434 22.76487524 22.27811374 25.64257812 19.41235352 C26.61919504 18.44072263 27.59671272 17.46999617 28.57519531 16.50024414 C29.99268283 15.0950763 31.40651901 13.68622823 32.8203125 12.27734375 C33.72861816 11.37556396 34.63692383 10.47378418 35.57275391 9.54467773 C37.62615244 7.39193453 39.34650954 5.23929744 41.09375 2.84375 C42.76714424 0.83274114 43.58213158 0.10444327 46.14013672 -0.53491211 C48.5937214 -0.68797839 50.92384209 -0.6153751 53.375 -0.4375 C54.20644531 -0.40591797 55.03789063 -0.37433594 55.89453125 -0.34179688 C57.93122662 -0.25986085 59.96608727 -0.13431499 62 0 C62 0.66 62 1.32 62 2 C61.34 2 60.68 2 60 2 C59.78730469 2.54140625 59.57460938 3.0828125 59.35546875 3.640625 C57.50978525 6.85328447 54.96023614 9.20532793 52.3125 11.75 C46.43775459 17.50614355 40.89611672 23.37498746 36 30 C36.65484375 30.7528125 37.3096875 31.505625 37.984375 32.28125 C47.2788763 43.0634225 55.75735488 54.40035032 64 66 C48.22225664 67.91294919 48.22225664 67.91294919 43.14941406 64.90136719 C39.88576593 61.9889094 37.48541552 58.47323052 35.15234375 54.796875 C34.02175912 53.03392947 32.82010065 51.36160505 31.5625 49.6875 C29.6622123 47.15378306 27.81497939 44.59505649 26 42 C22.76750364 42.23944418 21.72618917 43.25439443 19.30078125 45.5078125 C16.2827211 49.37546063 16.22383254 53.11140071 16.1875 57.875 C16.16236328 58.65875 16.13722656 59.4425 16.11132812 60.25 C16.05290936 62.16613555 16.02348074 64.08311793 16 66 C10.72 66 5.44 66 0 66 C0 44.22 0 22.44 0 0 Z " fill="#343F44" transform="translate(803,461)"/>
<path d="M0 0 C36.94736842 0 36.94736842 0 44.4375 5.9296875 C49.37410544 12.07576127 51.69769473 16.90674114 51 25 C49.21968844 32.28815046 45.28220691 36.88407133 39 41 C38.34 41 37.68 41 37 41 C40.15237609 46.7376191 43.748244 51.93583213 47.640625 57.18945312 C51 61.79359654 51 61.79359654 51 64 C47.90600857 64.4463133 45.98143603 64.70767419 43 64 C40.29279963 61.61328992 38.52252058 58.73585449 36.625 55.6875 C35.84576172 54.50897461 35.84576172 54.50897461 35.05078125 53.30664062 C33.6756571 51.21908136 32.33555767 49.11295968 31 47 C30.34 46.01 29.68 45.02 29 44 C26.68246412 43.49156938 26.68246412 43.49156938 23.9921875 43.48828125 C22.51298828 43.43510742 22.51298828 43.43510742 21.00390625 43.38085938 C19.45509766 43.34702148 19.45509766 43.34702148 17.875 43.3125 C16.83472656 43.27833984 15.79445313 43.24417969 14.72265625 43.20898438 C12.14882166 43.12633831 9.57442671 43.06149784 7 43 C7 49.93 7 56.86 7 64 C4.69 64 2.38 64 0 64 C0 42.88 0 21.76 0 0 Z " fill="#374046" transform="translate(634,547)"/>
<path d="M0 0 C4.72629686 2.02292862 7.79838447 5.36563125 10.44140625 9.72265625 C12.84137468 15.79730161 12.60935038 23.11751857 10.5078125 29.296875 C7.54417284 33.92756197 3.47056751 37.9404975 -1.4921875 40.421875 C-9.55539734 41.26781601 -16.17153072 41.35475199 -22.71875 36.20703125 C-27.64090223 31.25235379 -29.58231172 25.55272069 -29.8671875 18.671875 C-29.79262625 12.34348922 -27.34714022 8.22796545 -22.89453125 3.8515625 C-16.2723782 -1.84316371 -8.40855935 -1.9505749 0 0 Z " fill="#FBFCFC" transform="translate(665.4921875,474.578125)"/>
<path d="M0 0 C4.55782891 2.75008242 7.45207481 6.44691985 10.15234375 10.98828125 C11.94352213 18.69034829 11.04824903 24.63257683 7.203125 31.54296875 C4.23881113 35.97725744 0.71533914 37.98234767 -4.22265625 39.67578125 C-11.61602679 40.54203447 -17.27549049 40.28786898 -23.22265625 35.67578125 C-28.22264559 30.67579191 -30.51370548 26.51122584 -30.59765625 19.42578125 C-30.44738361 12.36296708 -29.4125224 7.93575434 -24.4453125 2.859375 C-17.47878114 -2.73201237 -8.19375822 -3.36688974 0 0 Z " fill="#FBFBFB" transform="translate(756.22265625,475.32421875)"/>
<path d="M0 0 C15.18 0 30.36 0 46 0 C46 2.31 46 4.62 46 7 C33.46 7 20.92 7 8 7 C8 13.93 8 20.86 8 28 C19.22 28 30.44 28 42 28 C42 29.98 42 31.96 42 34 C30.78 34 19.56 34 8 34 C8 41.59 8 49.18 8 57 C20.87 57 33.74 57 47 57 C47 59.31 47 61.62 47 64 C31.49 64 15.98 64 0 64 C0 42.88 0 21.76 0 0 Z " fill="#3E474D" transform="translate(834,547)"/>
<path d="M0 0 C3.86553883 1.93567584 7.16561908 4.37594938 10.59765625 6.98828125 C9.67368939 9.37519563 9.10475299 10.69851168 6.84765625 11.98828125 C3.36770731 11.98828125 1.39951154 9.94957995 -1.40234375 7.98828125 C-8.43776468 5.20546851 -15.96746653 4.62930383 -23.2578125 6.86328125 C-29.69887268 9.82558427 -34.33260536 13.87036424 -37.52734375 20.2265625 C-39.66439989 26.97164596 -39.63079112 35.33096455 -37.375 42.046875 C-33.59083989 48.93383675 -27.84272287 53.50815488 -20.40234375 55.98828125 C-12.00653327 56.69762258 -5.79723911 55.97384174 1.59765625 51.98828125 C2.58765625 51.65828125 3.57765625 51.32828125 4.59765625 50.98828125 C4.59765625 50.32828125 4.59765625 49.66828125 4.59765625 48.98828125 C7.59765625 50.48828125 7.59765625 50.48828125 10.59765625 51.98828125 C10.59765625 52.97828125 10.59765625 53.96828125 10.59765625 54.98828125 C5.07412932 59.54722167 -1.21077168 63.2547147 -8.40234375 63.98828125 C-9.30597656 64.08109375 -10.20960938 64.17390625 -11.140625 64.26953125 C-21.31720467 64.79749907 -29.58181746 61.66515413 -37.40234375 55.17578125 C-41.20964658 51.51305954 -43.58158709 47.92746091 -45.40234375 42.98828125 C-45.81484375 41.91578125 -46.22734375 40.84328125 -46.65234375 39.73828125 C-48.47709009 30.61454957 -48.22967196 22.11579363 -43.40234375 13.98828125 C-32.99870072 -0.15576782 -16.97056926 -5.04635756 0 0 Z " fill="#374045" transform="translate(574.40234375,548.01171875)"/>
<path d="M0 0 C6.001875 -0.0928125 6.001875 -0.0928125 12.125 -0.1875 C13.37555176 -0.21481201 14.62610352 -0.24212402 15.91455078 -0.27026367 C23.50835868 -0.327153 28.01236001 0.40205218 33.875 5.5 C36.70329471 9.16122292 36.64766249 12.89064735 36.41015625 17.37890625 C35.8090038 21.22055668 34.71651471 23.21557242 32 26 C25.13177585 30.36418409 19.49823295 30.49680511 11.5 30.25 C7.705 30.1675 3.91 30.085 0 30 C0 20.1 0 10.2 0 0 Z " fill="#FBFBFB" transform="translate(641,554)"/>
<path d="M0 0 C1.30071607 0.92490364 2.5959557 1.857851 3.875 2.8125 C2.09375 6.6875 2.09375 6.6875 0.125 7.8125 C-3.37072585 7.8125 -5.33557002 5.80494998 -8.125 3.8125 C-14.58249086 0.6394226 -22.7706673 0.56164356 -29.640625 2.53515625 C-36.20672417 5.63024498 -40.39353188 10.68223094 -44.125 16.8125 C-46.43827028 23.75231083 -46.13941761 31.61192856 -43.0625 38.25 C-40.46848417 42.76388065 -37.4021589 45.88703917 -33.125 48.8125 C-32.25875 49.43125 -31.3925 50.05 -30.5 50.6875 C-23.88745398 52.89168201 -16.24200617 52.85203445 -9.625 50.5625 C-6.37118364 48.93559182 -3.81393025 47.24934304 -1.125 44.8125 C0.8125 45.5625 0.8125 45.5625 2.875 46.8125 C3.50390625 48.890625 3.50390625 48.890625 3.875 50.8125 C2.5062552 51.77974632 1.12964396 52.7358644 -0.25 53.6875 C-1.01570312 54.22117187 -1.78140625 54.75484375 -2.5703125 55.3046875 C-8.04976702 58.53873864 -13.16316768 59.17380579 -19.4375 59.125 C-20.191521 59.11936035 -20.94554199 59.1137207 -21.72241211 59.10791016 C-31.09015384 58.90367013 -38.30118768 56.44955535 -45.125 49.8125 C-52.85302136 40.25100129 -54.2046861 30.92923687 -53.40625 18.97265625 C-52.38668805 11.14185401 -47.26672703 5.03989956 -41.27734375 0.24609375 C-28.31120355 -8.39015571 -13.03805886 -8.61734203 0 0 Z " fill="#353E43" transform="translate(753.125,552.1875)"/>
<path d="M0 0 C2.64 0 5.28 0 8 0 C8 18.81 8 37.62 8 57 C19.88 57 31.76 57 44 57 C44 59.31 44 61.62 44 64 C29.48 64 14.96 64 0 64 C0 42.88 0 21.76 0 0 Z " fill="#313A3F" transform="translate(775,547)"/>
<path d="M0 0 C0.79175485 8.90724209 -2.33910178 16.49065532 -8 23.3125 C-14.41075493 29.9559886 -22.66580287 34.57571831 -32 35 C-33.29452616 25.89722078 -30.09030736 19.43146017 -25 12 C-18.82219856 4.66710543 -9.68104492 -0.46843766 0 0 Z " fill="#353F44" transform="translate(750,256)"/>
<path d="M0 0 C8.25906897 0.53863493 15.34533213 3.76601665 20.9375 9.9375 C26.08766037 16.44487911 27.53141284 21.82396194 28 30 C19.23455057 29.26954588 11.9623377 25.51360007 6 19 C1.53876343 12.99404586 0.17020716 7.41174795 0 0 Z " fill="#343E44" transform="translate(663,276)"/>
<path d="M0 0 C2.31 0 4.62 0 7 0 C7 21.12 7 42.24 7 64 C4.69 64 2.38 64 0 64 C0 42.88 0 21.76 0 0 Z " fill="#313A3F" transform="translate(603,547)"/>
<path d="M0 0 C3.12578143 1.6720747 5.39281175 3.7856235 7 7 C7.40710593 11.23390162 7.25575965 13.51588352 5.25 17.3125 C1.87464258 21.34417692 0.37421462 21.86701149 -4.875 22.375 C-9.18785966 22.26235068 -11.70279071 20.82617939 -15 18 C-17.59107284 14.58449489 -17.50288306 11.16674536 -17 7 C-12.78461565 -0.02041706 -7.75659402 -1.09281263 0 0 Z " fill="#3E464A" transform="translate(568,635)"/>
<path d="M0 0 C4.06321081 -0.10795246 8.12355279 -0.1873055 12.1875 -0.25 C13.33798828 -0.28351563 14.48847656 -0.31703125 15.67382812 -0.3515625 C16.78564453 -0.36445313 17.89746094 -0.37734375 19.04296875 -0.390625 C20.06414795 -0.41157227 21.08532715 -0.43251953 22.13745117 -0.45410156 C25.76975938 0.12211108 27.41805326 1.42707189 30 4 C30.625 6.9375 30.625 6.9375 30 10 C28.33593161 12.557804 27.60649907 13.58624296 25 15 C20.71511755 15.62335923 16.50577318 15.46974804 12.1875 15.3125 C11.01767578 15.28994141 9.84785156 15.26738281 8.64257812 15.24414062 C5.76116952 15.18533637 2.88042058 15.09565972 0 15 C0 10.05 0 5.1 0 0 Z " fill="#FCFDFD" transform="translate(558,500)"/>
<path d="M0 0 C2.93423195 1.79646854 4.47205355 2.9441071 6 6 C6.64060222 11.17057507 6.89905059 14.80936543 3.6875 19.0625 C-0.55369364 22.12010472 -3.84915536 22.43651226 -9 22 C-12.08193978 20.3718054 -14.26420667 18.96990938 -16.375 16.1875 C-17.31707395 12.89024117 -17.41260656 10.4187401 -17 7 C-12.7381619 -0.09778242 -7.79559989 -0.91929244 0 0 Z " fill="#373F43" transform="translate(703,635)"/>
<path d="M0 0 C2.95733901 1.23222459 4.37110863 2.19142538 6.3125 4.6875 C7.35205591 8.18418806 7.68521551 11.43002718 7 15 C5.02970454 18.52379766 2.89793345 20.70068885 -1 22 C-7.83159214 22.67195988 -7.83159214 22.67195988 -10.8203125 20.953125 C-12.98769495 19.17314908 -14.73736325 17.5252735 -16 15 C-16.35032356 9.65756567 -16.4561069 6.35213461 -13 2 C-8.74557709 -0.83628194 -4.99310819 -0.51845373 0 0 Z " fill="#3E464A" transform="translate(595,635)"/>
<path d="M0 0 C3.58875 -0.0928125 3.58875 -0.0928125 7.25 -0.1875 C8.37003418 -0.22846802 8.37003418 -0.22846802 9.51269531 -0.27026367 C12.62088764 -0.30913698 14.71986318 -0.15429758 17.4609375 1.35546875 C19 3 19 3 19.375 5.5 C19 8 19 8 17 11 C17.66 11 18.32 11 19 11 C20.43060128 13.86120256 20.38692581 15.84010585 20 19 C15.97937448 22.31836655 12.17358961 22.37212964 7.1875 22.1875 C4.815625 22.125625 2.44375 22.06375 0 22 C0 14.74 0 7.48 0 0 Z " fill="#474E52" transform="translate(527,635)"/>
<path d="M0 0 C3.54249117 -0.10825949 7.08165249 -0.18744405 10.625 -0.25 C11.62402344 -0.28351563 12.62304688 -0.31703125 13.65234375 -0.3515625 C19.71016218 -0.43179851 23.5044635 -0.26170826 28 4 C28.625 7.5625 28.625 7.5625 28 11 C25.34281419 13.74881291 22.58005787 14.92092058 18.73168945 15.11352539 C17.86761475 15.10828857 17.00354004 15.10305176 16.11328125 15.09765625 C15.17548828 15.09443359 14.23769531 15.09121094 13.27148438 15.08789062 C12.29501953 15.07951172 11.31855469 15.07113281 10.3125 15.0625 C8.83040039 15.05573242 8.83040039 15.05573242 7.31835938 15.04882812 C4.87888042 15.0370432 2.43943259 15.01910783 0 15 C0 10.05 0 5.1 0 0 Z " fill="#F2F4F4" transform="translate(557,473)"/>
<path d="M0 0 C1.65 0 3.3 0 5 0 C7.01953125 2.625 7.01953125 2.625 8.8125 6 C9.41707031 7.11375 10.02164063 8.2275 10.64453125 9.375 C11.09183594 10.24125 11.53914062 11.1075 12 12 C12.61488281 11.07767578 12.61488281 11.07767578 13.2421875 10.13671875 C15.49479167 6.7578125 17.74739583 3.37890625 20 0 C21.32 0 22.64 0 24 0 C24 6.93 24 13.86 24 21 C22.68 21 21.36 21 20 21 C19.505 16.05 19.505 16.05 19 11 C18.59007812 11.6496875 18.18015625 12.299375 17.7578125 12.96875 C17.21898437 13.8040625 16.68015625 14.639375 16.125 15.5 C15.59132813 16.3353125 15.05765625 17.170625 14.5078125 18.03125 C14.01023437 18.6809375 13.51265625 19.330625 13 20 C12.34 20 11.68 20 11 20 C9.12422691 17.45349592 7.61674188 14.72293369 6 12 C5.67 15.3 5.34 18.6 5 22 C3.35 22 1.7 22 0 22 C0 14.74 0 7.48 0 0 Z " fill="#333C41" transform="translate(746,635)"/>
<path d="M0 0 C5 1 5 1 6.80078125 3.21484375 C7.29964844 4.11332031 7.79851563 5.01179687 8.3125 5.9375 C8.82425781 6.83339844 9.33601562 7.72929688 9.86328125 8.65234375 C11 11 11 11 11 13 C11.66 13 12.32 13 13 13 C13.226875 12.34 13.45375 11.68 13.6875 11 C14.80398076 8.44804398 15.9847879 6.09577512 17.375 3.6875 C17.97441406 2.64142578 17.97441406 2.64142578 18.5859375 1.57421875 C19.05257812 1.05472656 19.51921875 0.53523437 20 0 C21.32 0 22.64 0 24 0 C24 6.93 24 13.86 24 21 C22.68 21 21.36 21 20 21 C19.67 17.37 19.34 13.74 19 10 C16.03 14.95 16.03 14.95 13 20 C8.60841671 18.5361389 8.12052567 16.02168662 6 12 C5.67 15.3 5.34 18.6 5 22 C3.35 22 1.7 22 0 22 C0 14.74 0 7.48 0 0 Z " fill="#2F373D" transform="translate(715,635)"/>
<path d="M0 0 C1.65 0 3.3 0 5 0 C6.86451757 1.99198062 8.30292791 3.76955072 9.8125 6 C10.21919922 6.57234375 10.62589844 7.1446875 11.04492188 7.734375 C12.04474232 9.14588621 13.02438622 10.57165041 14 12 C14.33 8.04 14.66 4.08 15 0 C16.65 0 18.3 0 20 0 C20 7.26 20 14.52 20 22 C15 22 15 22 12.796875 19.84765625 C12.12140625 18.92855469 11.4459375 18.00945313 10.75 17.0625 C10.06421875 16.14597656 9.3784375 15.22945312 8.671875 14.28515625 C8.12015625 13.53105469 7.5684375 12.77695312 7 12 C6.67 11.67 6.34 11.34 6 11 C5.67 14.63 5.34 18.26 5 22 C3.35 22 1.7 22 0 22 C0 14.74 0 7.48 0 0 Z " fill="#414A4E" transform="translate(803,635)"/>
<path d="M0 0 C1.65 0 3.3 0 5 0 C5.33 2.97 5.66 5.94 6 9 C6.50789062 8.3503125 7.01578125 7.700625 7.5390625 7.03125 C8.22742188 6.1959375 8.91578125 5.360625 9.625 4.5 C10.29789063 3.6646875 10.97078125 2.829375 11.6640625 1.96875 C14 0 14 0 17.2734375 -0.28125 C18.62308594 -0.14203125 18.62308594 -0.14203125 20 0 C19.57847656 0.45890625 19.15695312 0.9178125 18.72265625 1.390625 C18.17480469 2.00421875 17.62695312 2.6178125 17.0625 3.25 C16.51722656 3.85328125 15.97195313 4.4565625 15.41015625 5.078125 C13.83793897 7.22086988 13.07981836 8.33107369 13 11 C14.6392573 13.64898256 14.6392573 13.64898256 16.9375 16.1875 C21 20.94682676 21 20.94682676 21 22 C18.375 22.4375 18.375 22.4375 15 22 C12.66877878 19.9050512 10.82671379 17.53926173 9 15 C8.01 15.33 7.02 15.66 6 16 C5.67 17.98 5.34 19.96 5 22 C3.35 22 1.7 22 0 22 C0 14.74 0 7.48 0 0 Z " fill="#40484C" transform="translate(607,635)"/>
<path d="M0 0 C1.30071607 0.92490364 2.5959557 1.857851 3.875 2.8125 C2.09375 6.6875 2.09375 6.6875 0.125 7.8125 C-3.37072585 7.8125 -5.33557002 5.80494998 -8.125 3.8125 C-12.74307026 1.36763928 -17.09613058 1.54692412 -22.1875 1.625 C-23.39116211 1.6259668 -23.39116211 1.6259668 -24.61914062 1.62695312 C-28.31034993 1.65452232 -31.55326272 1.80796455 -35.125 2.8125 C-34.3515625 1.636875 -34.3515625 1.636875 -33.5625 0.4375 C-33.088125 -0.42875 -32.61375 -1.295 -32.125 -2.1875 C-32.455 -2.8475 -32.785 -3.5075 -33.125 -4.1875 C-21.60987104 -8.28176808 -10.14689711 -6.70646481 0 0 Z " fill="#424A50" transform="translate(753.125,552.1875)"/>
<path d="M0 0 C1.65 0 3.3 0 5 0 C5.06058594 1.07121094 5.12117187 2.14242187 5.18359375 3.24609375 C5.26798537 4.64324391 5.35263406 6.04037857 5.4375 7.4375 C5.47681641 8.14455078 5.51613281 8.85160156 5.55664062 9.58007812 C5.47624438 13.08690419 5.47624438 13.08690419 7 16 C10 16.16666667 10 16.16666667 13 16 C14.99616554 14.00383446 14.40983427 10.18298037 14.5625 7.4375 C14.60568359 6.72658203 14.64886719 6.01566406 14.69335938 5.28320312 C14.79971777 3.52238088 14.90038846 1.7612168 15 0 C16.65 0 18.3 0 20 0 C20.10883596 2.37625177 20.18766696 4.74743976 20.25 7.125 C20.30027344 8.12273438 20.30027344 8.12273438 20.3515625 9.140625 C20.45212173 14.26914595 19.22723319 17.0675566 16 21 C12.79826746 22.60086627 9.47422941 22.49917089 6 22 C3.1899654 20.20636089 1.49059532 18.98119065 0 16 C-0.07181821 13.28239892 -0.09299506 10.59140612 -0.0625 7.875 C-0.05798828 7.12089844 -0.05347656 6.36679687 -0.04882812 5.58984375 C-0.03703499 3.72652873 -0.01909942 1.86325445 0 0 Z " fill="#3A4247" transform="translate(777,635)"/>
<path d="M0 0 C1.45599609 0.02320313 1.45599609 0.02320313 2.94140625 0.046875 C5.4375 0.25 5.4375 0.25 7.4375 1.25 C7.1075 2.57 6.7775 3.89 6.4375 5.25 C3.4675 5.25 0.4975 5.25 -2.5625 5.25 C-2.8925 6.24 -3.2225 7.23 -3.5625 8.25 C-2.94761719 8.37117187 -2.33273437 8.49234375 -1.69921875 8.6171875 C-0.48685547 8.86855469 -0.48685547 8.86855469 0.75 9.125 C1.55050781 9.28742187 2.35101562 9.44984375 3.17578125 9.6171875 C5.4375 10.25 5.4375 10.25 8.4375 12.25 C8.85077822 15.48734607 9.07773105 17.40605906 7.0625 20.0625 C4.27947296 22.09625053 2.46450459 22.40924415 -0.9375 22.4375 C-2.09378906 22.45876953 -2.09378906 22.45876953 -3.2734375 22.48046875 C-5.78084888 22.22801607 -7.39511902 21.50193467 -9.5625 20.25 C-9.2325 18.93 -8.9025 17.61 -8.5625 16.25 C-8.046875 16.415 -7.53125 16.58 -7 16.75 C-3.82886124 17.40049 -0.79031666 17.3120734 2.4375 17.25 C2.7675 16.26 3.0975 15.27 3.4375 14.25 C2.82261719 14.12882813 2.20773437 14.00765625 1.57421875 13.8828125 C0.36185547 13.63144531 0.36185547 13.63144531 -0.875 13.375 C-1.67550781 13.21257813 -2.47601562 13.05015625 -3.30078125 12.8828125 C-5.5625 12.25 -5.5625 12.25 -8.5625 10.25 C-9.2217272 4.20708401 -9.2217272 4.20708401 -7.38671875 1.54296875 C-4.85713522 -0.24994806 -3.06971903 -0.08175017 0 0 Z " fill="#3B4246" transform="translate(639.5625,634.75)"/>
<path d="M0 0 C2.625 2 2.625 2 4 4 C2.125 5.0625 2.125 5.0625 0 6 C-0.66 5.67 -1.32 5.34 -2 5 C-5 4.75 -5 4.75 -8 5 C-10.32528287 7.32528287 -10.29511025 7.84665898 -10.3125 11 C-10.32925781 11.70125 -10.34601562 12.4025 -10.36328125 13.125 C-10.24339844 13.74375 -10.12351562 14.3625 -10 15 C-6.71570724 17.18952851 -5.79033543 17.27734162 -2 17 C-1.278125 16.814375 -0.55625 16.62875 0.1875 16.4375 C2 16 2 16 4 17 C3 20 3 20 1.4375 21.1875 C-3.19301137 22.73100379 -7.34907662 22.66036935 -11.8125 20.875 C-14.64207349 18.4496513 -15.77932625 16.52639082 -17 13 C-16.90680178 7.6877012 -15.69051529 4.80234908 -12 1 C-8.31637726 -0.84181137 -4.02088059 -0.49936743 0 0 Z " fill="#434A4E" transform="translate(679,635)"/>
<path d="M0 0 C0.33 0 0.66 0 1 0 C1 20.79 1 41.58 1 63 C11.89 62.505 11.89 62.505 23 62 C23 61.67 23 61.34 23 61 C28.94 60.505 28.94 60.505 35 60 C35 59.67 35 59.34 35 59 C26.09 58.67 17.18 58.34 8 58 C8 57.67 8 57.34 8 57 C19.88 57 31.76 57 44 57 C44 59.31 44 61.62 44 64 C29.48 64 14.96 64 0 64 C0 42.88 0 21.76 0 0 Z " fill="#686D71" transform="translate(775,547)"/>
<path d="M0 0 C1.65 0 3.3 0 5 0 C9 6.75 9 6.75 9 9 C9.66 9 10.32 9 11 9 C11.268125 8.2575 11.53625 7.515 11.8125 6.75 C12.98232553 4.04093035 13.91312362 2.08687638 16 0 C18.60546875 -0.10546875 18.60546875 -0.10546875 21 0 C20.50628906 0.75023437 20.01257813 1.50046875 19.50390625 2.2734375 C15.34632441 8.91553001 12.87760663 14.09688552 13 22 C11.02 22 9.04 22 7 22 C6.99742187 21.39414062 6.99484375 20.78828125 6.9921875 20.1640625 C6.68946116 13.60499176 4.92983971 9.46272635 1.27734375 4.03125 C0 2 0 2 0 0 Z " fill="#4C5357" transform="translate(860,635)"/>
<path d="M0 0 C-0.5388531 6.73566377 -2.56239984 10.56239984 -7.3125 15.3125 C-10.5595173 17.35132482 -13.21059866 17.70279205 -17 18 C-16.79086436 12.03963426 -15.82208958 8.82347179 -11.68359375 4.4765625 C-7.90378323 1.16155467 -4.99411299 0 0 0 Z " fill="#363F44" transform="translate(735,299)"/>
<path d="M0 0 C2.0625 -0.061875 4.125 -0.12375 6.25 -0.1875 C7.99023438 -0.23970703 7.99023438 -0.23970703 9.765625 -0.29296875 C13.24125409 0.02185273 14.60203607 0.50799827 17 3 C17.25 5.6875 17.25 5.6875 17 8 C15.68 8.33 14.36 8.66 13 9 C12.835 8.360625 12.67 7.72125 12.5 7.0625 C11.218214 4.83880759 11.218214 4.83880759 9.0859375 4.51171875 C7.06424845 4.2724022 5.03158061 4.13106972 3 4 C3 5.65 3 7.3 3 9 C5.31 9 7.62 9 10 9 C9.67 9.99 9.34 10.98 9 12 C7.02 12 5.04 12 3 12 C3 13.98 3 15.96 3 18 C5.97 18 8.94 18 12 18 C12.33 18.66 12.66 19.32 13 20 C8.71 20 4.42 20 0 20 C0 13.4 0 6.8 0 0 Z " fill="#394246" transform="translate(529,635)"/>
<path d="M0 0 C6.27 0 12.54 0 19 0 C19 1.32 19 2.64 19 4 C16.69 4 14.38 4 12 4 C12 9.94 12 15.88 12 22 C10.35 22 8.7 22 7 22 C7 16.06 7 10.12 7 4 C4.69 4 2.38 4 0 4 C0 2.68 0 1.36 0 0 Z " fill="#384044" transform="translate(839,635)"/>
<path d="M0 0 C5.55404708 0.13885118 8.40639325 2.52601659 12.296875 6.1640625 C15.17118199 9.2625127 15.9401936 11.65435607 16.125 15.8125 C16.08375 16.534375 16.0425 17.25625 16 18 C10.44595292 17.86114882 7.59360675 15.47398341 3.703125 11.8359375 C0.82881801 8.7374873 0.0598064 6.34564393 -0.125 2.1875 C-0.08375 1.465625 -0.0425 0.74375 0 0 Z " fill="#333C41" transform="translate(675,252)"/>
<path d="M0 0 C2.4375 1.5625 2.4375 1.5625 4 4 C4 7.81153499 3.80074051 10.05097421 1.3125 13 C-1.89970645 14.38906225 -3.6936636 14.05521374 -7 13 C-9.27605184 10.87568495 -9.90218604 9.55893694 -10.4375 6.5 C-9.41545969 0.65976965 -5.50319355 -0.91719892 0 0 Z " fill="#EEF0F0" transform="translate(566,639)"/>
<path d="M0 0 C1.875 1 1.875 1 3 3 C3.46541727 5.75802827 3.50954515 8.2461661 3 11 C1.375 13.0625 1.375 13.0625 -1 14 C-4.49989972 13.92857348 -6.29263143 13.66021066 -8.875 11.25 C-10.24863504 8.50272993 -10.53062116 7.03212094 -10 4 C-7.16144342 -0.03948437 -4.8329989 -0.71980835 0 0 Z " fill="#F1F3F3" transform="translate(701,639)"/>
<path d="M0 0 C3.375 0.9375 3.375 0.9375 5.375 3.9375 C5.69662076 7.0250593 5.86224515 9.07765561 4.3125 11.8125 C1.2680714 13.58023274 -1.1881012 13.30573916 -4.625 12.9375 C-6.5625 11.8125 -6.5625 11.8125 -7.625 9.9375 C-8.16352618 6.32168138 -8.04736225 4.59638511 -6.0625 1.5 C-3.625 -0.0625 -3.625 -0.0625 0 0 Z " fill="#F6F7F7" transform="translate(591.625,639.0625)"/>
<path d="M0 0 C0.33 0 0.66 0 1 0 C1 20.13 1 40.26 1 61 C2.32 61 3.64 61 5 61 C5 54.4 5 47.8 5 41 C12.26 41 19.52 41 27 41 C27 41.33 27 41.66 27 42 C20.4 42 13.8 42 7 42 C7 48.93 7 55.86 7 63 C4.69 63 2.38 63 0 63 C0 42.21 0 21.42 0 0 Z " fill="#282F34" transform="translate(634,548)"/>
<path d="M0 0 C1.98 0 3.96 0 6 0 C6 7.26 6 14.52 6 22 C4.02 22 2.04 22 0 22 C0 14.74 0 7.48 0 0 Z " fill="#4F575B" transform="translate(829,635)"/>
<path d="M0 0 C1.31677734 0.00966797 1.31677734 0.00966797 2.66015625 0.01953125 C4.9375 0.1875 4.9375 0.1875 6.9375 1.1875 C6.9375 3.1675 6.9375 5.1475 6.9375 7.1875 C6.421875 6.836875 5.90625 6.48625 5.375 6.125 C1.8867992 4.78338431 -0.48775344 5.26071385 -4.0625 6.1875 C-6.36970064 8.99626599 -6.32111368 11.65311309 -6.0625 15.1875 C-5.76500054 16.86093448 -5.44122934 18.53055915 -5.0625 20.1875 C-8.22365776 18.81766497 -9.0552092 18.1984362 -11.0625 15.1875 C-11.49395362 9.83747517 -11.51901329 6.54014636 -8.0625 2.1875 C-4.79122414 0.00664943 -3.78873277 -0.06137859 0 0 Z " fill="#363D41" transform="translate(590.0625,634.8125)"/>
<path d="M0 0 C6.67353409 0.28398017 10.71077185 3.07805532 16 7 C14.21875 10.875 14.21875 10.875 12.25 12 C9.37349345 12 8.03243502 10.77673727 5.76953125 9.12109375 C0.83645422 5.99572265 -5.27873512 4.7334955 -11 4 C-11 3.67 -11 3.34 -11 3 C-3.57142857 2.85714286 -3.57142857 2.85714286 0 4 C0 2.68 0 1.36 0 0 Z " fill="#394146" transform="translate(741,548)"/>
<path d="M0 0 C3.1875 2.125 3.1875 2.125 5 5 C5 8.1875 5 8.1875 4 11 C3.01 11.66 2.02 12.32 1 13 C0.5359375 11.2984375 0.5359375 11.2984375 0.0625 9.5625 C-0.62924531 6.21224901 -0.62924531 6.21224901 -2 5 C-5.47256915 4.69132719 -7.3872288 4.61298661 -10.375 6.5 C-10.91125 6.995 -11.4475 7.49 -12 8 C-12.33 7.34 -12.66 6.68 -13 6 C-14.49743119 7.49743119 -14.33202693 8.98824239 -14.5625 11.0625 C-14.7790625 13.0115625 -14.7790625 13.0115625 -15 15 C-15.66 14.67 -16.32 14.34 -17 14 C-17.59865471 8.01345291 -17.59865471 8.01345291 -15.95703125 5.234375 C-11.27002972 -0.42851248 -7.09171013 -0.97816692 0 0 Z " fill="#373F43" transform="translate(703,635)"/>
<path d="M0 0 C0.90238747 2.70716242 1.11851302 4.23776768 1.09765625 7.01171875 C1.09443359 7.76904297 1.09121094 8.52636719 1.08789062 9.30664062 C1.07951172 10.09232422 1.07113281 10.87800781 1.0625 11.6875 C1.05798828 12.48478516 1.05347656 13.28207031 1.04882812 14.10351562 C1.0370585 16.06904257 1.01912348 18.03453085 1 20 C0.67 19.34 0.34 18.68 0 18 C-0.66 18 -1.32 18 -2 18 C-1.67 19.65 -1.34 21.3 -1 23 C-3.4375 22.1875 -3.4375 22.1875 -6 21 C-7.18681726 17.43954823 -7.09689832 14.56191663 -7.0625 10.8125 C-7.05347656 9.54019531 -7.04445313 8.26789062 -7.03515625 6.95703125 C-7.02355469 5.98121094 -7.01195312 5.00539063 -7 4 C-5.68 3.67 -4.36 3.34 -3 3 C-2.67 3.99 -2.34 4.98 -2 6 C-1.34 4.02 -0.68 2.04 0 0 Z " fill="#2E363C" transform="translate(707,569)"/>
<path d="M0 0 C2.96685686 2.80648622 3.90861117 4.3717018 4.5 8.4375 C3.92103132 12.56265185 2.53936964 14.74643266 0 18 C-1.32 17.34 -2.64 16.68 -4 16 C-3.67 15.46375 -3.34 14.9275 -3 14.375 C-1.73501245 11.37065456 -1.65613558 9.23232558 -2 6 C-3.508903 3.8875358 -4.80803785 3.09598107 -7.125 1.9375 C-9 1 -9 1 -10 -1 C-5.95202225 -2.15656507 -3.69172878 -2.08251367 0 0 Z " fill="#444A4E" transform="translate(571,637)"/>
<path d="M0 0 C5 1 5 1 6.875 3.375 C8 6 8 6 7 9 C6 9 5 9 4 9 C4 12.96 4 16.92 4 21 C2.68 21 1.36 21 0 21 C0 14.07 0 7.14 0 0 Z " fill="#2F373C" transform="translate(715,635)"/>
<path d="M0 0 C1.98 0.495 1.98 0.495 4 1 C4 1.66 4 2.32 4 3 C9.61 3.66 15.22 4.32 21 5 C20.67 5.99 20.34 6.98 20 8 C15.1091711 9.92018687 9.12704295 9.62865649 4 9 C1.26808401 7.61745142 0.65525582 6.69745393 -1 4 C-0.8125 1.6875 -0.8125 1.6875 0 0 Z " fill="#40494E" transform="translate(550,603)"/>
<path d="M0 0 C1.65 0 3.3 0 5 0 C5.54372951 3.05847848 6 5.88772805 6 9 C5.34 9 4.68 9 4 9 C4 12.96 4 16.92 4 21 C2.68 21 1.36 21 0 21 C0 14.07 0 7.14 0 0 Z " fill="#2F373C" transform="translate(746,635)"/>
<path d="M0 0 C1.70774325 2.1956699 3.16422564 4.30108034 4.5 6.75 C4.995 7.4925 5.49 8.235 6 9 C6.99 9 7.98 9 9 9 C9.99 9.33 10.98 9.66 12 10 C11.21654285 11.17219543 10.42297164 12.33763668 9.625 13.5 C9.18414063 14.1496875 8.74328125 14.799375 8.2890625 15.46875 C7.86367188 15.9740625 7.43828125 16.479375 7 17 C6.34 17 5.68 17 5 17 C3.12422691 14.45349592 1.61674188 11.72293369 0 9 C-0.33 12.3 -0.66 15.6 -1 19 C-2.65 19 -4.3 19 -6 19 C-4.68 18.67 -3.36 18.34 -2 18 C-2.02320313 17.20335937 -2.04640625 16.40671875 -2.0703125 15.5859375 C-2.24956063 5.06151142 -2.24956063 5.06151142 0 0 Z " fill="#41484B" transform="translate(752,638)"/>
<path d="M0 0 C2.625 2 2.625 2 4 4 C2.125 5.0625 2.125 5.0625 0 6 C-0.66 5.67 -1.32 5.34 -2 5 C-4.95788569 4.5832448 -4.95788569 4.5832448 -8 5 C-9.83333333 6.75 -9.83333333 6.75 -11 9 C-11.99 10.485 -11.99 10.485 -13 12 C-15 9 -15 9 -16 6 C-11.57826856 -0.40388691 -7.49722117 -0.9311065 0 0 Z " fill="#343D40" transform="translate(679,635)"/>
<path d="M0 0 C1.875 0.125 1.875 0.125 4 1 C5.25 4.0625 5.25 4.0625 6 7 C6.66 7 7.32 7 8 7 C8.33 6.34 8.66 5.68 9 5 C9.99 5.99 10.98 6.98 12 8 C10.02 10.97 10.02 10.97 8 14 C3.60841671 12.5361389 3.12052567 10.02168662 1 6 C0.67 9.3 0.34 12.6 0 16 C-1.65 16 -3.3 16 -5 16 C-3.68 15.67 -2.36 15.34 -1 15 C-1.01160156 14.16855469 -1.02320313 13.33710937 -1.03515625 12.48046875 C-1.04869141 10.85044922 -1.04869141 10.85044922 -1.0625 9.1875 C-1.07410156 8.10855469 -1.08570313 7.02960937 -1.09765625 5.91796875 C-1 3 -1 3 0 0 Z " fill="#3A4246" transform="translate(720,641)"/>
<path d="M0 0 C0.66 0.33 1.32 0.66 2 1 C1.525625 1.763125 1.05125 2.52625 0.5625 3.3125 C-1.10106097 5.96410548 -1.10106097 5.96410548 -2 9 C-2.99 8.67 -3.98 8.34 -5 8 C-8.61116402 7.48902673 -12.2277509 7.04220603 -15.84765625 6.59765625 C-19 6 -19 6 -21 4 C-20.154375 3.96261719 -19.30875 3.92523437 -18.4375 3.88671875 C-11.63570399 3.49252375 -6.27042579 2.60281825 0 0 Z " fill="#333B41" transform="translate(575,601)"/>
<path d="M0 0 C1.65 0 3.3 0 5 0 C5 3.3 5 6.6 5 10 C4.67 10 4.34 10 4 10 C4 7.03 4 4.06 4 1 C3.34 1 2.68 1 2 1 C2 7.27 2 13.54 2 20 C2.66 20 3.32 20 4 20 C4 18.35 4 16.7 4 15 C4.33 15 4.66 15 5 15 C5 17.31 5 19.62 5 22 C3.35 22 1.7 22 0 22 C0 14.74 0 7.48 0 0 Z " fill="#464D51" transform="translate(607,635)"/>
<path d="M0 0 C-2.18564068 2.26659033 -4.15187013 4.09787186 -6.8125 5.8125 C-7.534375 6.534375 -8.25625 7.25625 -9 8 C-8.92524733 12.26090222 -8.36999926 14.44500111 -6 18 C-7.875 17.5 -7.875 17.5 -10 16 C-10.70326854 13.93736484 -11.12771556 11.92217651 -11.5078125 9.77734375 C-11.67023437 9.19082031 -11.83265625 8.60429688 -12 8 C-12.66 7.67 -13.32 7.34 -14 7 C-11.07013018 -0.08051873 -7.02367934 -0.35118397 0 0 Z " fill="#30373A" transform="translate(566,635)"/>
<path d="M0 0 C0.99 0 1.98 0 3 0 C3 2.97 3 5.94 3 9 C3.33 9 3.66 9 4 9 C4 12.96 4 16.92 4 21 C2.68 21 1.36 21 0 21 C0 14.07 0 7.14 0 0 Z " fill="#343C40" transform="translate(803,635)"/>
<path d="M0 0 C7.75 -0.125 7.75 -0.125 10 1 C9.67 2.65 9.34 4.3 9 6 C6.03 6 3.06 6 0 6 C0 4.02 0 2.04 0 0 Z " fill="#D5D8D9" transform="translate(532,647)"/>
<path d="M0 0 C2.31 0 4.62 0 7 0 C7 0.33 7 0.66 7 1 C5.02 1 3.04 1 1 1 C1 2.98 1 4.96 1 7 C3.31 7 5.62 7 8 7 C7.67 7.99 7.34 8.98 7 10 C5.02 10 3.04 10 1 10 C1 11.98 1 13.96 1 16 C3.97 16 6.94 16 10 16 C10 16.33 10 16.66 10 17 C6.37 17 2.74 17 -1 17 C-0.67 11.39 -0.34 5.78 0 0 Z " fill="#2B3337" transform="translate(531,637)"/>
<path d="M0 0 C1.65 0 3.3 0 5 0 C5.25 7.625 5.25 7.625 3 11 C2.60986284 12.9896995 2.26797351 14.99019869 2 17 C1.34 16.67 0.68 16.34 0 16 C0 10.72 0 5.44 0 0 Z " fill="#323A3E" transform="translate(777,635)"/>
<path d="M0 0 C3.7267772 2.25505627 6.02539326 4.97135768 8.625 8.4375 C3.17623997 6.71683894 -2.08669451 4.59044651 -7.375 2.4375 C-7.045 1.4475 -6.715 0.4575 -6.375 -0.5625 C-3.375 -1.5625 -3.375 -1.5625 0 0 Z " fill="#E4E8E8" transform="translate(668.375,337.5625)"/>
<path d="M0 0 C0.99 0.33 1.98 0.66 3 1 C2.34 1.66 1.68 2.32 1 3 C1.61875 3.61875 2.2375 4.2375 2.875 4.875 C4.25 6.25 5.625 7.625 7 9 C6.34 9.66 5.68 10.32 5 11 C-0.56818182 10.43181818 -0.56818182 10.43181818 -2 9 C-2.1875 5.5625 -2.1875 5.5625 -2 2 C-1.34 1.34 -0.68 0.68 0 0 Z " fill="#313A3D" transform="translate(633,636)"/>
<path d="M0 0 C1.65 0 3.3 0 5 0 C3.02 3.63 1.04 7.26 -1 11 C-1.66 11 -2.32 11 -3 11 C-3 10.34 -3 9.68 -3 9 C-3.66 9 -4.32 9 -5 9 C-3.76344399 5.57569106 -2.59887381 2.59887381 0 0 Z " fill="#3D4549" transform="translate(876,635)"/>
<path d="M0 0 C0.66 0.33 1.32 0.66 2 1 C2.05395478 2.62463842 2.09277195 4.24978541 2.125 5.875 C2.14820313 6.77992188 2.17140625 7.68484375 2.1953125 8.6171875 C2 11 2 11 0 13 C-3.125 13.125 -3.125 13.125 -6 13 C-5.566875 12.34 -5.13375 11.68 -4.6875 11 C-2.67535337 7.42285044 -1.37571305 3.86509858 0 0 Z " fill="#2D363A" transform="translate(707,640)"/>
<path d="M0 0 C1.32 0 2.64 0 4 0 C4 6.93 4 13.86 4 21 C3.67 21 3.34 21 3 21 C2.67 16.38 2.34 11.76 2 7 C1.67 8.65 1.34 10.3 1 12 C0.67 12 0.34 12 0 12 C0 8.04 0 4.08 0 0 Z " fill="#2B3438" transform="translate(818,635)"/>
<path d="M0 0 C2.97 0.495 2.97 0.495 6 1 C6.33 1.99 6.66 2.98 7 4 C6.67 4.66 6.34 5.32 6 6 C0.08739655 6.25706972 -5.23918159 5.2982126 -11 4 C-11 3.67 -11 3.34 -11 3 C-3.57142857 2.85714286 -3.57142857 2.85714286 0 4 C0 2.68 0 1.36 0 0 Z " fill="#30383E" transform="translate(741,548)"/>
<path d="M0 0 C0 0.99 0 1.98 0 3 C-0.33 3.33 -0.66 3.66 -1 4 C-0.34 4.66 0.32 5.32 1 6 C-2.77635253 8.51756835 -5.56365558 8.63772451 -10 8 C-12 6.5 -12 6.5 -13 5 C-12.2575 5.04125 -11.515 5.0825 -10.75 5.125 C-6.21670006 4.91894091 -3.49280696 2.74434833 0 0 Z " fill="#353C40" transform="translate(569,649)"/>
<path d="M0 0 C0.33 0 0.66 0 1 0 C0.67 4.95 0.34 9.9 0 15 C-0.33 15 -0.66 15 -1 15 C-1 13.35 -1 11.7 -1 10 C-2.98 10.33 -4.96 10.66 -7 11 C-6.02262231 9.35310365 -5.0430468 7.70751146 -4.0625 6.0625 C-3.51722656 5.14597656 -2.97195313 4.22945312 -2.41015625 3.28515625 C-1 1 -1 1 0 0 Z " fill="#434C4F" transform="translate(588,185)"/>
<path d="M0 0 C2.64 0 5.28 0 8 0 C8.33 1.32 8.66 2.64 9 4 C6.04335481 5.4783226 3.25770263 5.06032783 0 5 C0 3.35 0 1.7 0 0 Z " fill="#EAECED" transform="translate(532,639)"/>
<path d="M0 0 C1.9375 0.75 1.9375 0.75 4 2 C4.75 4.125 4.75 4.125 5 6 C4.01 6.495 4.01 6.495 3 7 C2.01 6.34 1.02 5.68 0 5 C-2.67145537 5.80161791 -2.67145537 5.80161791 -5 7 C-5.66 6.34 -6.32 5.68 -7 5 C-4.69 3.35 -2.38 1.7 0 0 Z " fill="#3D454A" transform="translate(752,597)"/>
<path d="M0 0 C0.721875 0.495 1.44375 0.99 2.1875 1.5 C5.83994313 3.44796967 8.22981375 3.45519075 12.1875 2.4375 C14 2 14 2 16 3 C15.67 3.99 15.34 4.98 15 6 C13.02 6.33 11.04 6.66 9 7 C9 6.67 9 6.34 9 6 C7.88625 5.7525 6.7725 5.505 5.625 5.25 C2 4 2 4 0.5625 1.875 C0.376875 1.25625 0.19125 0.6375 0 0 Z " fill="#343C3F" transform="translate(667,649)"/>
<path d="M0 0 C1.9375 0.3125 1.9375 0.3125 4 1 C4.33 1.99 4.66 2.98 5 4 C3.5625 6.1875 3.5625 6.1875 2 8 C1.67 7.34 1.34 6.68 1 6 C0.67 9.3 0.34 12.6 0 16 C-1.65 16 -3.3 16 -5 16 C-3.68 15.67 -2.36 15.34 -1 15 C-1.01160156 14.16855469 -1.02320313 13.33710937 -1.03515625 12.48046875 C-1.04869141 10.85044922 -1.04869141 10.85044922 -1.0625 9.1875 C-1.07410156 8.10855469 -1.08570313 7.02960937 -1.09765625 5.91796875 C-1 3 -1 3 0 0 Z " fill="#5E6568" transform="translate(720,641)"/>
<path d="M0 0 C0.94875 0.04125 1.8975 0.0825 2.875 0.125 C1.94847299 1.30039996 1.00836613 2.46510577 0.0625 3.625 C-0.45957031 4.2746875 -0.98164062 4.924375 -1.51953125 5.59375 C-3.125 7.125 -3.125 7.125 -6.125 7.125 C-5.03177966 0.20127119 -5.03177966 0.20127119 0 0 Z " fill="#353D41" transform="translate(624.125,634.875)"/>
<path d="M0 0 C0.99 0.33 1.98 0.66 3 1 C3.33 2.98 3.66 4.96 4 7 C3.34 7 2.68 7 2 7 C1.67 10.63 1.34 14.26 1 18 C0.67 18 0.34 18 0 18 C0 12.06 0 6.12 0 0 Z " fill="#364147" transform="translate(748,637)"/>
<path d="M0 0 C0.66 0.33 1.32 0.66 2 1 C0.25 4.875 0.25 4.875 -2 6 C-2.33 4.68 -2.66 3.36 -3 2 C-2.01 1.34 -1.02 0.68 0 0 Z M-6 3 C-5.01 3.33 -4.02 3.66 -3 4 C-3.33 4.33 -3.66 4.66 -4 5 C-4.23075082 6.34747084 -4.41153063 7.70377565 -4.5625 9.0625 C-4.7790625 11.0115625 -4.7790625 11.0115625 -5 13 C-5.66 12.67 -6.32 12.34 -7 12 C-7.125 5.25 -7.125 5.25 -6 3 Z " fill="#434B4D" transform="translate(693,637)"/>
<path d="M0 0 C0.66 0 1.32 0 2 0 C2 2.97 2 5.94 2 9 C3.98 7.68 5.96 6.36 8 5 C7.8125 6.875 7.8125 6.875 7 9 C4.5625 10.3125 4.5625 10.3125 2 11 C1.34 10.67 0.68 10.34 0 10 C0 6.7 0 3.4 0 0 Z " fill="#384247" transform="translate(609,636)"/>
<path d="M0 0 C0 0.99 0 1.98 0 3 C-3.76624671 4.25541557 -5.37188934 3.37061958 -9 2 C-9 1.01 -9 0.02 -9 -1 C-5.38055101 -2.34053666 -3.42632833 -1.61798838 0 0 Z " fill="#3D4447" transform="translate(682,637)"/>
<path d="M0 0 C0.99 0.99 1.98 1.98 3 3 C-0.2102122 6.2102122 -3.37460314 5.98974759 -7.8125 6.0625 C-8.864375 6.041875 -9.91625 6.02125 -11 6 C-11.33 5.34 -11.66 4.68 -12 4 C-9.02148438 3.65820312 -9.02148438 3.65820312 -6.04296875 3.31640625 C-3.80603607 3.02829265 -3.80603607 3.02829265 -1 2 C-0.67 1.34 -0.34 0.68 0 0 Z " fill="#434B50" transform="translate(598,648)"/>
<path d="M0 0 C0.99 1.32 1.98 2.64 3 4 C2.01 4.495 2.01 4.495 1 5 C-0.0250382 8.0140196 -0.27163899 11.09208051 -0.5625 14.25 C-0.64628906 15.14203125 -0.73007812 16.0340625 -0.81640625 16.953125 C-0.87699219 17.62859375 -0.93757812 18.3040625 -1 19 C-2.65 19 -4.3 19 -6 19 C-4.68 18.67 -3.36 18.34 -2 18 C-2.02320313 17.20335937 -2.04640625 16.40671875 -2.0703125 15.5859375 C-2.24956063 5.06151142 -2.24956063 5.06151142 0 0 Z " fill="#575E62" transform="translate(752,638)"/>
<path d="M0 0 C-2.52788007 2.79872437 -4.20411134 4.45773019 -8 5 C-8 4.34 -8 3.68 -8 3 C-8.66 3 -9.32 3 -10 3 C-10 2.34 -10 1.68 -10 1 C-6.78548731 -0.60725635 -3.56387464 -0.05748185 0 0 Z " fill="#2E3739" transform="translate(677,635)"/>
<path d="M0 0 C1.5 1 1.5 1 3 3 C3.27345479 5.71846235 3.13491285 8.25677199 3 11 C2.67 10.34 2.34 9.68 2 9 C1.34 9 0.68 9 0 9 C-1.125 2.25 -1.125 2.25 0 0 Z " fill="#363E43" transform="translate(570,639)"/>
<path d="M0 0 C1.65 0 3.3 0 5 0 C5.33 1.65 5.66 3.3 6 5 C5.34 4.67 4.68 4.34 4 4 C4.33 5.65 4.66 7.3 5 9 C0.57142857 3.85714286 0.57142857 3.85714286 0 0 Z " fill="#32393B" transform="translate(860,635)"/>
<path d="M0 0 C0.99 0 1.98 0 3 0 C3 0.66 3 1.32 3 2 C3.66 2.33 4.32 2.66 5 3 C3.68 4.32 2.36 5.64 1 7 C0.01 6.34 -0.98 5.68 -2 5 C-1.67 4.360625 -1.34 3.72125 -1 3.0625 C0.07271225 1.23205433 0.07271225 1.23205433 0 0 Z " fill="#3D4549" transform="translate(569,648)"/>
<path d="M0 0 C2.97 0.495 2.97 0.495 6 1 C6 2.65 6 4.3 6 6 C4.68 6.33 3.36 6.66 2 7 C1.4375 5.0625 1.4375 5.0625 1 3 C1.33 2.67 1.66 2.34 2 2 C1.34 1.34 0.68 0.68 0 0 Z " fill="#41494D" transform="translate(540,637)"/>
<path d="M0 0 C1.98 0.99 1.98 0.99 4 2 C4 3.65 4 5.3 4 7 C2.68 6.34 1.36 5.68 0 5 C0 3.35 0 1.7 0 0 Z " fill="#353E42" transform="translate(753,643)"/>
<path d="M0 0 C1.2065625 0.0309375 1.2065625 0.0309375 2.4375 0.0625 C0.7875 2.7025 -0.8625 5.3425 -2.5625 8.0625 C-2.8925 7.4025 -3.2225 6.7425 -3.5625 6.0625 C-2.625 3.9375 -2.625 3.9375 -1.5625 2.0625 C-2.2225 1.7325 -2.8825 1.4025 -3.5625 1.0625 C-2.5625 0.0625 -2.5625 0.0625 0 0 Z " fill="#343C3F" transform="translate(878.5625,634.9375)"/>
<path d="M0 0 C2 2 2 2 2 4 C1 6 1 6 -2.0625 7.25 C-3.031875 7.4975 -4.00125 7.745 -5 8 C-4.360625 7.236875 -3.72125 6.47375 -3.0625 5.6875 C-0.85767219 3.11753287 -0.85767219 3.11753287 0 0 Z " fill="#41494E" transform="translate(675,503)"/>
<path d="M0 0 C1.9375 0.8125 1.9375 0.8125 4 2 C4.33 2.99 4.66 3.98 5 5 C1.7 5 -1.6 5 -5 5 C-5 4.67 -5 4.34 -5 4 C-3.02 3.67 -1.04 3.34 1 3 C0.67 2.01 0.34 1.02 0 0 Z " fill="#2F363A" transform="translate(797,163)"/>
<path d="M0 0 C1.98 0.495 1.98 0.495 4 1 C4 1.66 4 2.32 4 3 C4.66 3.33 5.32 3.66 6 4 C1.25 5.125 1.25 5.125 -1 4 C-0.67 2.68 -0.34 1.36 0 0 Z " fill="#40464A" transform="translate(631,651)"/>
<path d="M0 0 C1.32 0.33 2.64 0.66 4 1 C5.2077558 4.62326739 4.54311128 5.64146369 3 9 C2.67 9 2.34 9 2 9 C1.34 6.03 0.68 3.06 0 0 Z " fill="#40474C" transform="translate(863,637)"/>
<path d="M0 0 C0.33 0 0.66 0 1 0 C1 2.64 1 5.28 1 8 C0.67 6.68 0.34 5.36 0 4 C-1.65 4.66 -3.3 5.32 -5 6 C-4.34 4.35 -3.68 2.7 -3 1 C-2.34 1.33 -1.68 1.66 -1 2 C-0.67 1.34 -0.34 0.68 0 0 Z " fill="#404A4F" transform="translate(736,636)"/>
<path d="M0 0 C0.66 0 1.32 0 2 0 C1.67 1.65 1.34 3.3 1 5 C0.01 5.33 -0.98 5.66 -2 6 C-2 2 -2 2 0 0 Z " fill="#363E41" transform="translate(555,637)"/>
<path d="M0 0 C1.98 0 3.96 0 6 0 C6 0.99 6 1.98 6 3 C4.02 3 2.04 3 0 3 C0 2.01 0 1.02 0 0 Z " fill="#313A40" transform="translate(841,636)"/>
<path d="M0 0 C0.99 0 1.98 0 3 0 C3 1.98 3 3.96 3 6 C2.01 6.495 2.01 6.495 1 7 C1 6.34 1 5.68 1 5 C0.34 4.67 -0.32 4.34 -1 4 C-0.67 2.68 -0.34 1.36 0 0 Z " fill="#3F474B" transform="translate(544,648)"/>
<path d="M0 0 C0.99 0 1.98 0 3 0 C3 1.98 3 3.96 3 6 C2.34 5.34 1.68 4.68 1 4 C0.01 4.66 -0.98 5.32 -2 6 C-1.34 4.02 -0.68 2.04 0 0 Z " fill="#323B3F" transform="translate(598,645)"/>
<path d="M0 0 C0.66 0.33 1.32 0.66 2 1 C2 1.99 2 2.98 2 4 C2.66 4.33 3.32 4.66 4 5 C2.02 5.99 2.02 5.99 0 7 C-1.04449911 3.86650268 -0.93423645 3.01031744 0 0 Z " fill="#323A3F" transform="translate(867,641)"/>
<path d="M0 0 C2.475 0.99 2.475 0.99 5 2 C5 2.99 5 3.98 5 5 C3.68 4.67 2.36 4.34 1 4 C0.67 2.68 0.34 1.36 0 0 Z " fill="#3B4448" transform="translate(701,635)"/>
<path d="M0 0 C2.375 0.25 2.375 0.25 5 1 C6.375 2.875 6.375 2.875 7 5 C6.67 5.99 6.34 6.98 6 8 C5.71125 7.360625 5.4225 6.72125 5.125 6.0625 C4.17176549 3.84793921 4.17176549 3.84793921 2 3 C2 2.34 2 1.68 2 1 C1.34 0.67 0.68 0.34 0 0 Z " fill="#31383D" transform="translate(716,636)"/>
<path d="M0 0 C1.98 0 3.96 0 6 0 C3.37801226 2.15377564 1.35595828 3.40072174 -2 4 C-1.34 2.68 -0.68 1.36 0 0 Z " fill="#CCD0D3" transform="translate(755,397)"/>
</svg>
